<?xml version="1.0" standalone="no"?>
<!DOCTYPE svg PUBLIC "-//W3C//DTD SVG 20010904//EN"
 "http://www.w3.org/TR/2001/REC-SVG-20010904/DTD/svg10.dtd">
<svg version="1.0" xmlns="http://www.w3.org/2000/svg"
 width="700.000000pt" height="700.000000pt" viewBox="0 0 700.000000 700.000000"
 preserveAspectRatio="xMidYMid meet">
<metadata>
Created by potrace 1.14, written by Peter Selinger 2001-2017
</metadata>
<g transform="translate(0.000000,700.000000) scale(0.100000,-0.100000)"
fill="#000000" stroke="none">
<path d="M1318 6659 c-66 -15 -151 -65 -206 -120 -70 -70 -110 -154 -123 -261
-6 -54 -9 -1047 -7 -2833 3 -2650 4 -2752 22 -2805 10 -30 29 -74 42 -96 31
-53 118 -136 172 -163 105 -54 -15 -51 2279 -51 1533 0 2137 3 2175 11 111 24
236 116 283 209 59 117 55 -109 55 2957 0 2794 0 2804 -20 2864 -12 33 -31 77
-44 97 -32 51 -114 125 -167 153 -101 51 9 49 -2284 48 -1199 -1 -2156 -5
-2177 -10z m3807 -881 c45 -24 85 -68 106 -113 17 -37 19 -79 19 -633 0 -647
1 -633 -58 -695 -15 -16 -45 -39 -67 -50 l-40 -22 -1255 0 -1256 0 -48 25
c-28 15 -61 43 -80 68 l-31 44 0 627 0 627 27 42 c16 23 39 49 53 58 68 44 32
43 1350 41 1142 -2 1253 -3 1280 -19z"/>
</g>
</svg>
