<svg xmlns="http://www.w3.org/2000/svg" fill="none" viewBox="0 0 128 128">
  <path fill="#65A30D" fill-rule="evenodd" d="M57.754 10c17.988 0 24.95 8.124 29.013 13.346 1.965 2.527 3.387 5.461 4.529 7.817 1.217 2.513 2.116 4.368 3.016 4.368.924 0 1.39-1.99 1.945-4.36.839-3.582 1.881-8.034 5.016-7.825 8.704.58 22.05 33.074 16.247 51.062-4.381 13.584-20.887 9.865-30.752 5.223-1.28-.603-2.934-1.554-4.772-2.612-6.278-3.612-14.716-8.466-17.858-4.932-1.74 1.959-.035 6.186 2.902 8.704.902.774 1.947 1.604 3.008 2.448 3.717 2.953 7.63 6.063 6.274 7.416-1.742 1.741-11.605 1.161-23.209-7.543-5.017-3.763-8.407-8.177-11.109-11.694-3.546-4.618-5.906-7.69-9.2-5.714-5.222 3.134 2.307 21.47 12.752 30.174 10.165 8.471 26.112 15.086 40.632 12.185 15.479-3.093 9.85 1.741 4.628 4.062-8.3 3.689-37.415 10.554-56.851-2.901-15.087-10.445-24.95-26.692-24.95-47.581C8.433 36.11 25.837 10 57.753 10Zm35.963 58.025a8.124 8.124 0 1 0 0-16.247 8.124 8.124 0 0 0 0 16.247Z" clip-rule="evenodd"/>
  <mask id="a" width="110" height="108" x="9" y="10" maskUnits="userSpaceOnUse" style="mask-type:alpha">
    <path fill="#111827" d="M86.767 23.346C82.705 18.124 75.742 10 57.754 10c-31.916 0-49.32 26.111-48.74 51.643 0 20.889 9.864 37.136 24.951 47.581 19.436 13.455 48.551 6.59 56.851 2.901 5.222-2.321 10.851-7.155-4.628-4.062-14.52 2.901-30.467-3.714-40.632-12.185-10.444-8.704-17.974-27.04-12.752-30.174 5.803-3.481 8.706 8.704 20.31 17.408 11.603 8.704 21.466 9.284 23.208 7.544 1.742-1.741-5.222-6.383-9.282-9.865-2.937-2.518-4.643-6.745-2.902-8.704 4.062-4.57 16.976 4.883 22.63 7.544 9.865 4.642 26.371 8.36 30.752-5.223 5.803-17.988-7.543-50.482-16.247-51.062-5.21-.348-4.64 12.185-6.961 12.185-1.743 0-3.483-6.963-7.545-12.185Z"/>
  </mask>
  <g mask="url(#a)">
    <path fill="#84CC16" d="M101.26 78.47c-18.568 0-28.432-22.63-52.223-23.21-15.663-.383-18.567 8.124-17.987 15.086.58 6.963 36.556 28.433 36.556 28.433l22.63-1.16 10.445-.581c17.601 4.255 28.78-1.972 30.172-2.9 1.741-1.161-.579-51.064-8.703-37.137-6.668 11.429-2.321 21.47-20.89 21.47Z"/>
  </g>
</svg>
